General
Complete name                    : Amelie[2001]BRrip[French][Eng Subs][Ac3-5.1]
                                   -=[CaLvIn]=-
Imdb Link                        : http://www.imdb.com/title/tt0211915
Format                           : AVI
Format/Info                      : Audio Video Interleave
File size                        : 797 MiB
Duration                         : 2h 1mn
Overall bit rate                 : 916 Kbps
Writing application              : VirtualDubMod 1.5.10.3 | www.virtualdub-fr.org || (build 2550/release)
Writing library                  : VirtualDubMod build 2550/release

Video
ID                               : 0
Format                           : MPEG-4 Visual
Format profile                   : Advanced Simple@L5
Format settings, BVOP            : 2
Format settings, QPel            : No
Format settings, GMC             : No warppoints
Format settings, Matrix          : Default (H.263)
Codec ID                         : XVID
Codec ID/Hint                    : XviD
Duration                         : 2h 1mn
Bit rate                         : 715 Kbps
Width                            : 720 pixels
Height                           : 304 pixels
Display aspect ratio             : 16:9
Frame rate                       : 23.976 fps
Color space                      : YUV
Chroma subsampling               : 4:2:0
Bit depth                        : 8 bits
Scan type                        : Progressive
Compression mode                 : Lossy
Bits/(Pixel*Frame)               : 0.136
Stream size                      : 622 MiB (78%)
Writing library                  : XviD 1.2.1 (UTC 2008-12-04)

Audio
ID                               : 1
Format                           : AC-3
Format/Info                      : Audio Coding 3
Mode extension                   : CM (complete main)
Codec ID                         : 2000
Duration                         : 2h 1mn
Bit rate mode                    : Constant
Bit rate                         : 192 Kbps
Channel(s)                       : 6 channels
Channel positions                : Front: L C R, Side: L R, LFE
Sampling rate                    : 48.0 KHz
Bit depth                        : 16 bits
Compression mode                 : Lossy
Stream size                      : 167 MiB (21%)
Alignment                        : Split accross interleaves
Interleave, duration             : 42 ms (1.00 video frame)
Interleave, preload duration     : 500 ms


Screens

 
http://img411.imageshack.us/img411/5060/59608968.png 
http://img221.imageshack.us/img221/9611/10735993.png 
http://img23.imageshack.us/img23/2292/31181746.png 
http://img24.imageshack.us/img24/8706/30434273.png 
http://img411.imageshack.us/img411/3527/65079967.png 
http://img845.imageshack.us/img845/8430/72821729.png 
http://img825.imageshack.us/img825/7416/43782324.png 
http://img713.imageshack.us/img713/761/11965872.png 
http://img849.imageshack.us/img849/2259/36153739.png 
http://img801.imageshack.us/img801/3626/83848454.png